<svg xmlns="http://www.w3.org/2000/svg" width="1800" height="1200" viewBox="0 0 1800 1200" role="img">
<defs>
  <marker id="arrow" viewBox="0 0 10 10" refX="9" refY="5" markerWidth="8" markerHeight="8" orient="auto-start-reverse">
    <path d="M 0 0 L 10 5 L 0 10 z" fill="#a8b3c7"/>
  </marker>
</defs>
<rect x="0" y="0" width="1800" height="1200" fill="#f7f9fc"/>
<text class="" x="70" y="76" font-family="Arial, Helvetica, sans-serif" font-size="42" font-weight="800" fill="#172033" text-anchor="start"><tspan x="70" dy="0">Gadgets Framework Alignment with NIST AI RMF</tspan></text><text class="" x="72" y="115" font-family="Arial, Helvetica, sans-serif" font-size="22" font-weight="400" fill="#5b667a" text-anchor="start"><tspan x="72" dy="0">NIST AI RMF Core uses four functions: Govern, Map, Measure, and Manage. Gadgets maps runtime controls and evidence to each function.</tspan></text><ellipse cx="900" cy="620" rx="700" ry="430" fill="none" stroke="#a8b3c7" stroke-width="3" stroke-dasharray="13 11" opacity="0.55"/><rect x="80" y="170" width="680" height="300" rx="28" fill="#f0ebff" stroke="#7048e8" stroke-width="2.5"/>
<g fill="none" stroke="#7048e8" stroke-width="3" stroke-linecap="round" stroke-linejoin="round"><path d="M130.0,196 L148,204 V216.0 C147,232 130.0,236 130.0,236 C130.0,236 113,232 112,216.0 V204 Z"/><path d="M130.0,205 V229"/></g>
<text class="" x="166" y="224" font-family="Arial, Helvetica, sans-serif" font-size="31" font-weight="800" fill="#172033" text-anchor="start"><tspan x="166" dy="0">GOVERN</tspan></text>
<text class="" x="166" y="255" font-family="Arial, Helvetica, sans-serif" font-size="17" font-weight="400" fill="#5b667a" text-anchor="start"><tspan x="166" dy="0">Policies, roles, accountability, and oversight</tspan></text>
<circle cx="128" cy="293" r="5" fill="#7048e8"/>
<text class="" x="148" y="300" font-family="Arial, Helvetica, sans-serif" font-size="19" font-weight="400" fill="#172033" text-anchor="start"><tspan x="148" dy="0">Separation of duties between provider</tspan><tspan x="148" dy="22.419999999999998">reasoning and runtime execution</tspan></text>
<circle cx="128" cy="351" r="5" fill="#7048e8"/>
<text class="" x="148" y="358" font-family="Arial, Helvetica, sans-serif" font-size="19" font-weight="400" fill="#172033" text-anchor="start"><tspan x="148" dy="0">Policy engine, approvals, decision</tspan><tspan x="148" dy="22.419999999999998">records, and pack trust design</tspan></text>
<circle cx="128" cy="409" r="5" fill="#7048e8"/>
<text class="" x="148" y="416" font-family="Arial, Helvetica, sans-serif" font-size="19" font-weight="400" fill="#172033" text-anchor="start"><tspan x="148" dy="0">Future: AI governance profile and role-</tspan><tspan x="148" dy="22.419999999999998">based approval scopes</tspan></text><rect x="1040" y="170" width="680" height="300" rx="28" fill="#e8f0ff" stroke="#2f6fed" stroke-width="2.5"/>
<g fill="none" stroke="#2f6fed" stroke-width="3" stroke-linecap="round" stroke-linejoin="round"><path d="M1074,209 L1092,200 L1110,209 L1092,218 Z"/><path d="M1074,209 V227 L1092,237 L1110,227 V209"/><path d="M1092,218 V237"/></g>
<text class="" x="1126" y="224" font-family="Arial, Helvetica, sans-serif" font-size="31" font-weight="800" fill="#172033" text-anchor="start"><tspan x="1126" dy="0">MAP</tspan></text>
<text class="" x="1126" y="255" font-family="Arial, Helvetica, sans-serif" font-size="17" font-weight="400" fill="#5b667a" text-anchor="start"><tspan x="1126" dy="0">Context, capabilities, boundaries, and dependencies</tspan></text>
<circle cx="1088" cy="293" r="5" fill="#2f6fed"/>
<text class="" x="1108" y="300" font-family="Arial, Helvetica, sans-serif" font-size="19" font-weight="400" fill="#172033" text-anchor="start"><tspan x="1108" dy="0">Packs, Gadget manifests, capabilities,</tspan><tspan x="1108" dy="22.419999999999998">zones, and provider profiles</tspan></text>
<circle cx="1088" cy="351" r="5" fill="#2f6fed"/>
<text class="" x="1108" y="358" font-family="Arial, Helvetica, sans-serif" font-size="19" font-weight="400" fill="#172033" text-anchor="start"><tspan x="1108" dy="0">Built-in vs project-local pack source and</tspan><tspan x="1108" dy="22.419999999999998">trust-root context</tspan></text>
<circle cx="1088" cy="409" r="5" fill="#2f6fed"/>
<text class="" x="1108" y="416" font-family="Arial, Helvetica, sans-serif" font-size="19" font-weight="400" fill="#172033" text-anchor="start"><tspan x="1108" dy="0">Future: data exposure classes and AI</tspan><tspan x="1108" dy="22.419999999999998">system/provider inventory</tspan></text><rect x="80" y="770" width="680" height="300" rx="28" fill="#e9f7ef" stroke="#198754" stroke-width="2.5"/>
<g fill="none" stroke="#198754" stroke-width="3" stroke-linecap="round" stroke-linejoin="round"><rect x="116" y="799" width="30" height="38" rx="4"/><path d="M123,809 H140 M123,818 H140 M123,827 H135"/><path d="M112,805 H116 M112,815 H116 M112,825 H116"/></g>
<text class="" x="166" y="824" font-family="Arial, Helvetica, sans-serif" font-size="31" font-weight="800" fill="#172033" text-anchor="start"><tspan x="166" dy="0">MEASURE</tspan></text>
<text class="" x="166" y="855" font-family="Arial, Helvetica, sans-serif" font-size="17" font-weight="400" fill="#5b667a" text-anchor="start"><tspan x="166" dy="0">Evidence, testing, telemetry, and control effectiveness</tspan></text>
<circle cx="128" cy="893" r="5" fill="#198754"/>
<text class="" x="148" y="900" font-family="Arial, Helvetica, sans-serif" font-size="19" font-weight="400" fill="#172033" text-anchor="start"><tspan x="148" dy="0">Evidence bundles, artifact hashes, audit</tspan><tspan x="148" dy="22.419999999999998">verification, allowlisted test output</tspan></text>
<circle cx="128" cy="951" r="5" fill="#198754"/>
<text class="" x="148" y="958" font-family="Arial, Helvetica, sans-serif" font-size="19" font-weight="400" fill="#172033" text-anchor="start"><tspan x="148" dy="0">Trust diagnostics, signature results,</tspan><tspan x="148" dy="22.419999999999998">redaction outcomes, policy decisions</tspan></text>
<circle cx="128" cy="1009" r="5" fill="#198754"/>
<text class="" x="148" y="1016" font-family="Arial, Helvetica, sans-serif" font-size="19" font-weight="400" fill="#172033" text-anchor="start"><tspan x="148" dy="0">Future: policy outcome metrics and</tspan><tspan x="148" dy="22.419999999999998">redaction/denial reporting</tspan></text><rect x="1040" y="770" width="680" height="300" rx="28" fill="#fff2df" stroke="#b85c00" stroke-width="2.5"/>
<g fill="none" stroke="#b85c00" stroke-width="3" stroke-linecap="round" stroke-linejoin="round"><circle cx="1090.0" cy="816.0" r="8"/><path d="M1090.0,797 V804 M1090.0,835 V828 M1071,816.0 H1078 M1109,816.0 H1102 M1077,803 L1082,808 M1103,829 L1098,824 M1103,803 L1098,808 M1077,829 L1082,824"/></g>
<text class="" x="1126" y="824" font-family="Arial, Helvetica, sans-serif" font-size="31" font-weight="800" fill="#172033" text-anchor="start"><tspan x="1126" dy="0">MANAGE</tspan></text>
<text class="" x="1126" y="855" font-family="Arial, Helvetica, sans-serif" font-size="17" font-weight="400" fill="#5b667a" text-anchor="start"><tspan x="1126" dy="0">Risk response, containment, rollback, and improvement</tspan></text>
<circle cx="1088" cy="893" r="5" fill="#b85c00"/>
<text class="" x="1108" y="900" font-family="Arial, Helvetica, sans-serif" font-size="19" font-weight="400" fill="#172033" text-anchor="start"><tspan x="1108" dy="0">Approval gates, Safe Mode, dry-run-deny,</tspan><tspan x="1108" dy="22.419999999999998">and future hard-deny controls</tspan></text>
<circle cx="1088" cy="951" r="5" fill="#b85c00"/>
<text class="" x="1108" y="958" font-family="Arial, Helvetica, sans-serif" font-size="19" font-weight="400" fill="#172033" text-anchor="start"><tspan x="1108" dy="0">Pack-load trust decisions, failure</tspan><tspan x="1108" dy="22.419999999999998">behavior, and rollback guidance</tspan></text>
<circle cx="1088" cy="1009" r="5" fill="#b85c00"/>
<text class="" x="1108" y="1016" font-family="Arial, Helvetica, sans-serif" font-size="19" font-weight="400" fill="#172033" text-anchor="start"><tspan x="1108" dy="0">Future: AI incident events and containment</tspan><tspan x="1108" dy="22.419999999999998">playbooks</tspan></text><rect x="649" y="469" width="520" height="320" rx="42" fill="#101828" opacity="0.09"/><rect x="640" y="458" width="520" height="320" rx="42" fill="#ffffff" stroke="#172033" stroke-width="3"/><g fill="none" stroke="#172033" stroke-width="3" stroke-linecap="round" stroke-linejoin="round"><path d="M900.0,492 L932,500 V526.0 C931,556 900.0,560 900.0,560 C900.0,560 869,556 868,526.0 V500 Z"/><path d="M900.0,501 V553"/></g><text class="" x="900" y="592" font-family="Arial, Helvetica, sans-serif" font-size="36" font-weight="800" fill="#172033" text-anchor="middle"><tspan x="900" dy="0">Gadgets Runtime</tspan></text><text class="" x="900" y="638" font-family="Arial, Helvetica, sans-serif" font-size="21" font-weight="400" fill="#5b667a" text-anchor="middle"><tspan x="900" dy="0">Runtime-enforced authority boundary</tspan></text><text class="" x="900" y="685" font-family="Arial, Helvetica, sans-serif" font-size="20" font-weight="400" fill="#172033" text-anchor="middle"><tspan x="900" dy="0">Models reason and request.</tspan><tspan x="900" dy="25.0">Gadgets authorize and execute.</tspan><tspan x="900" dy="25.0">Evidence and audit make outcomes</tspan><tspan x="900" dy="25.0">reviewable.</tspan></text><text class="" x="900" y="1135" font-family="Arial, Helvetica, sans-serif" font-size="23" font-weight="700" fill="#172033" text-anchor="middle"><tspan x="900" dy="0">Interpretation for Gadgets: AI risk management is not a prompt-only problem. It is a runtime control, evidence, audit, policy, and supply-chain problem.</tspan></text><text class="" x="900" y="1170" font-family="Arial, Helvetica, sans-serif" font-size="17" font-weight="400" fill="#5b667a" text-anchor="middle"><tspan x="900" dy="0">NIST AI RMF is voluntary and use-case agnostic; this map is an engineering alignment, not a compliance claim.</tspan></text></svg>
