<svg xmlns="http://www.w3.org/2000/svg" width="1900" height="1450" viewBox="0 0 1900 1450" role="img">
<defs>
  <marker id="arrow" viewBox="0 0 10 10" refX="9" refY="5" markerWidth="8" markerHeight="8" orient="auto-start-reverse">
    <path d="M 0 0 L 10 5 L 0 10 z" fill="#a8b3c7"/>
  </marker>
</defs>
<rect x="0" y="0" width="1900" height="1450" fill="#f7f9fc"/>
<text class="" x="70" y="78" font-family="Arial, Helvetica, sans-serif" font-size="42" font-weight="800" fill="#172033" text-anchor="start"><tspan x="70" dy="0">Gadgets Framework: Least-Privilege Worker Layout</tspan></text><text class="" x="72" y="116" font-family="Arial, Helvetica, sans-serif" font-size="22" font-weight="400" fill="#5b667a" text-anchor="start"><tspan x="72" dy="0">LLM-agnostic runtime where models may reason and request actions, but only the runtime may authorize and execute.</tspan></text><rect x="78" y="175" width="330" height="165" rx="24" fill="#101828" opacity="0.08"/>
<rect x="70" y="165" width="330" height="165" rx="24" fill="#ffffff" stroke="#2f6fed" stroke-width="2"/>
<g fill="none" stroke="#2f6fed" stroke-width="3" stroke-linecap="round" stroke-linejoin="round"><path d="M104,193 H122 L132,203 V231 H104 Z"/><path d="M122,193 V204 H132"/><path d="M110,213 H126 M110,221 H126"/></g>
<text class="" x="144" y="209" font-family="Arial, Helvetica, sans-serif" font-size="25" font-weight="700" fill="#172033" text-anchor="start"><tspan x="144" dy="0">Human / Operator</tspan></text>
<text class="" x="96" y="249" font-family="Arial, Helvetica, sans-serif" font-size="18" font-weight="400" fill="#5b667a" text-anchor="start"><tspan x="96" dy="0">Creates requests, reviews plans,</tspan><tspan x="96" dy="21.96">approves scoped changes, and owns</tspan><tspan x="96" dy="21.96">rollback decisions.</tspan></text><rect x="518" y="175" width="360" height="165" rx="24" fill="#101828" opacity="0.08"/>
<rect x="510" y="165" width="360" height="165" rx="24" fill="#e8f0ff" stroke="#2f6fed" stroke-width="2"/>
<g fill="none" stroke="#2f6fed" stroke-width="3" stroke-linecap="round" stroke-linejoin="round"><path d="M547,219 C539,215 540,203 550,202 C552,194 565,194 567,202 C577,203 578,216 569,220 C565,230 551,229 547,219 Z"/><path d="M558,198 V226"/><path d="M550,210 C553,209 555,207 557,204"/><path d="M566,210 C563,209 561,207 559,204"/></g>
<text class="" x="584" y="209" font-family="Arial, Helvetica, sans-serif" font-size="25" font-weight="700" fill="#172033" text-anchor="start"><tspan x="584" dy="0">Model Provider</tspan></text>
<text class="" x="536" y="249" font-family="Arial, Helvetica, sans-serif" font-size="18" font-weight="400" fill="#5b667a" text-anchor="start"><tspan x="536" dy="0">OpenAI, Anthropic, mock, or future</tspan><tspan x="536" dy="21.96">providers. Reasoning surface only; no</tspan><tspan x="536" dy="21.96">direct tool authority.</tspan></text><rect x="988" y="175" width="780" height="165" rx="24" fill="#101828" opacity="0.08"/>
<rect x="980" y="165" width="780" height="165" rx="24" fill="#e9f7ef" stroke="#198754" stroke-width="2"/>
<g fill="none" stroke="#198754" stroke-width="3" stroke-linecap="round" stroke-linejoin="round"><path d="M1022.0,191 L1036,199 V207.0 C1035,219 1022.0,223 1022.0,223 C1022.0,223 1009,219 1008,207.0 V199 Z"/><path d="M1022.0,200 V216"/></g>
<text class="" x="1054" y="209" font-family="Arial, Helvetica, sans-serif" font-size="25" font-weight="700" fill="#172033" text-anchor="start"><tspan x="1054" dy="0">Gadgets Runtime Boundary</tspan></text>
<text class="" x="1006" y="249" font-family="Arial, Helvetica, sans-serif" font-size="18" font-weight="400" fill="#5b667a" text-anchor="start"><tspan x="1006" dy="0">Validates handoffs, loads manifests, applies policy, records evidence, appends</tspan><tspan x="1006" dy="21.96">audit events, and dispatches only approved actions.</tspan></text><line x1="400" y1="245" x2="510" y2="245" stroke="#2f6fed" stroke-width="3" marker-end="url(#arrow)"/><rect x="332.5" y="169.0" width="245" height="34" rx="17" fill="#ffffff" fill-opacity="0.72" stroke="#a8b3c7" stroke-opacity="0.65" stroke-width="1.5"/><text class="" x="455.0" y="193.0" font-family="Arial, Helvetica, sans-serif" font-size="14" font-weight="700" fill="#5b667a" text-anchor="middle"><tspan x="455.0" dy="0">request context</tspan></text><line x1="870" y1="245" x2="980" y2="245" stroke="#2f6fed" stroke-width="3" marker-end="url(#arrow)" stroke-dasharray="9 8"/><rect x="802.5" y="167.0" width="245" height="34" rx="17" fill="#ffffff" fill-opacity="0.72" stroke="#a8b3c7" stroke-opacity="0.65" stroke-width="1.5"/><text class="" x="925.0" y="191.0" font-family="Arial, Helvetica, sans-serif" font-size="14" font-weight="700" fill="#5b667a" text-anchor="middle"><tspan x="925.0" dy="0">structured handoff</tspan></text><line x1="980" y1="302" x2="870" y2="302" stroke="#a8b3c7" stroke-width="3" marker-end="url(#arrow)" stroke-dasharray="9 8"/><rect x="790.3" y="328.0" width="265" height="34" rx="17" fill="#ffffff" fill-opacity="0.72" stroke="#a8b3c7" stroke-opacity="0.65" stroke-width="1.5"/><text class="" x="922.8" y="352.0" font-family="Arial, Helvetica, sans-serif" font-size="14" font-weight="700" fill="#5b667a" text-anchor="middle"><tspan x="922.8" dy="0">no runtime keys to provider</tspan></text><text class="" x="76" y="395" font-family="Arial, Helvetica, sans-serif" font-size="26" font-weight="800" fill="#172033" text-anchor="start"><tspan x="76" dy="0">Runtime control gates</tspan></text><rect x="78" y="435" width="315" height="120" rx="20" fill="#101828" opacity="0.08"/>
<rect x="70" y="425" width="315" height="120" rx="20" fill="#e8f0ff" stroke="#2f6fed" stroke-width="2"/>
<g fill="none" stroke="#2f6fed" stroke-width="3" stroke-linecap="round" stroke-linejoin="round"><path d="M104,453 H122 L132,463 V491 H104 Z"/><path d="M122,453 V464 H132"/><path d="M110,473 H126 M110,481 H126"/></g>
<text class="" x="144" y="469" font-family="Arial, Helvetica, sans-serif" font-size="22" font-weight="700" fill="#172033" text-anchor="start"><tspan x="144" dy="0">Handoff</tspan><tspan x="144" dy="27.5">validation</tspan></text><rect x="438" y="435" width="315" height="120" rx="20" fill="#101828" opacity="0.08"/>
<rect x="430" y="425" width="315" height="120" rx="20" fill="#e9f7ef" stroke="#198754" stroke-width="2"/>
<g fill="none" stroke="#198754" stroke-width="3" stroke-linecap="round" stroke-linejoin="round"><path d="M472.0,451 L486,459 V467.0 C485,479 472.0,483 472.0,483 C472.0,483 459,479 458,467.0 V459 Z"/><path d="M472.0,460 V476"/></g>
<text class="" x="504" y="469" font-family="Arial, Helvetica, sans-serif" font-size="22" font-weight="700" fill="#172033" text-anchor="start"><tspan x="504" dy="0">Policy</tspan><tspan x="504" dy="27.5">engine</tspan></text><rect x="798" y="435" width="315" height="120" rx="20" fill="#101828" opacity="0.08"/>
<rect x="790" y="425" width="315" height="120" rx="20" fill="#fff2df" stroke="#b85c00" stroke-width="2"/>
<g fill="none" stroke="#b85c00" stroke-width="3" stroke-linecap="round" stroke-linejoin="round"><rect x="822" y="469" width="32" height="24" rx="5"/><path d="M828,469 V463 C828,453 848,453 848,463 V469"/><path d="M838,479 V485"/></g>
<text class="" x="864" y="469" font-family="Arial, Helvetica, sans-serif" font-size="22" font-weight="700" fill="#172033" text-anchor="start"><tspan x="864" dy="0">Approval</tspan><tspan x="864" dy="27.5">records</tspan></text><rect x="1158" y="435" width="315" height="120" rx="20" fill="#101828" opacity="0.08"/>
<rect x="1150" y="425" width="315" height="120" rx="20" fill="#f0ebff" stroke="#7048e8" stroke-width="2"/>
<g fill="none" stroke="#7048e8" stroke-width="3" stroke-linecap="round" stroke-linejoin="round"><path d="M1180,464 L1198,455 L1216,464 L1198,473 Z"/><path d="M1180,464 V482 L1198,492 L1216,482 V464"/><path d="M1198,473 V492"/></g>
<text class="" x="1224" y="469" font-family="Arial, Helvetica, sans-serif" font-size="22" font-weight="700" fill="#172033" text-anchor="start"><tspan x="1224" dy="0">Pack trust</tspan><tspan x="1224" dy="27.5">preview</tspan></text><rect x="1518" y="435" width="315" height="120" rx="20" fill="#101828" opacity="0.08"/>
<rect x="1510" y="425" width="315" height="120" rx="20" fill="#fdeceb" stroke="#b3261e" stroke-width="2"/>
<g fill="none" stroke="#b3261e" stroke-width="3" stroke-linecap="round" stroke-linejoin="round"><circle cx="1552.0" cy="467.0" r="8"/><path d="M1552.0,452 V459 M1552.0,482 V475 M1537,467.0 H1544 M1567,467.0 H1560 M1543,458 L1548,463 M1561,476 L1556,471 M1561,458 L1556,463 M1543,476 L1548,471"/></g>
<text class="" x="1584" y="469" font-family="Arial, Helvetica, sans-serif" font-size="22" font-weight="700" fill="#172033" text-anchor="start"><tspan x="1584" dy="0">Redaction</tspan><tspan x="1584" dy="27.5">helper</tspan></text><rect x="78" y="630" width="410" height="310" rx="24" fill="#101828" opacity="0.08"/>
<rect x="70" y="620" width="410" height="310" rx="24" fill="#ffffff" stroke="#7048e8" stroke-width="2"/>
<g fill="none" stroke="#7048e8" stroke-width="3" stroke-linecap="round" stroke-linejoin="round"><path d="M100,659 L118,650 L136,659 L118,668 Z"/><path d="M100,659 V677 L118,687 L136,677 V659"/><path d="M118,668 V687"/></g>
<text class="" x="144" y="664" font-family="Arial, Helvetica, sans-serif" font-size="25" font-weight="700" fill="#172033" text-anchor="start"><tspan x="144" dy="0">Packs and Manifests</tspan></text>
<text class="" x="96" y="704" font-family="Arial, Helvetica, sans-serif" font-size="18" font-weight="400" fill="#5b667a" text-anchor="start"><tspan x="96" dy="0">Developer Pack is active today. Future</tspan><tspan x="96" dy="21.96">Linux Admin, database, cloud, and</tspan><tspan x="96" dy="21.96">deployment packs stay bounded by</tspan><tspan x="96" dy="21.96">declared capabilities, zones,</tspan><tspan x="96" dy="21.96">approvals, and trust policy.</tspan></text><rect x="1428" y="630" width="410" height="310" rx="24" fill="#101828" opacity="0.08"/>
<rect x="1420" y="620" width="410" height="310" rx="24" fill="#ffffff" stroke="#0f766e" stroke-width="2"/>
<g fill="none" stroke="#0f766e" stroke-width="3" stroke-linecap="round" stroke-linejoin="round"><rect x="1449" y="651" width="38" height="34" rx="8"/><path d="M1456,661 H1480 M1456,671 H1480"/><circle cx="1462" cy="661" r="2"/><circle cx="1474" cy="671" r="2"/></g>
<text class="" x="1494" y="664" font-family="Arial, Helvetica, sans-serif" font-size="25" font-weight="700" fill="#172033" text-anchor="start"><tspan x="1494" dy="0">Zones and Boundaries</tspan></text>
<text class="" x="1446" y="704" font-family="Arial, Helvetica, sans-serif" font-size="18" font-weight="400" fill="#5b667a" text-anchor="start"><tspan x="1446" dy="0">Examples: local_repo, database target,</tspan><tspan x="1446" dy="21.96">firewall/security zone, container host,</tspan><tspan x="1446" dy="21.96">CI workspace, protected paths, and</tspan><tspan x="1446" dy="21.96">allowed commands.</tspan></text><text class="" x="590" y="610" font-family="Arial, Helvetica, sans-serif" font-size="26" font-weight="800" fill="#172033" text-anchor="start"><tspan x="590" dy="0">Purpose-built Gadget families</tspan></text><text class="" x="590" y="638" font-family="Arial, Helvetica, sans-serif" font-size="17" font-weight="400" fill="#5b667a" text-anchor="start"><tspan x="590" dy="0">Current Developer MVP plus planned DevOps/Admin packs; each family remains narrow and policy checked.</tspan></text><rect x="560" y="665" width="215" height="96" rx="18" fill="#ffffff" stroke="#2f6fed" stroke-width="1.8"/>
<g fill="none" stroke="#2f6fed" stroke-width="3" stroke-linecap="round" stroke-linejoin="round"><path d="M588,685 H606 L616,695 V723 H588 Z"/><path d="M606,685 V696 H616"/><path d="M594,705 H610 M594,713 H610"/></g>
<text class="" x="620" y="702" font-family="Arial, Helvetica, sans-serif" font-size="16" font-weight="700" fill="#172033" text-anchor="start"><tspan x="620" dy="0">Filesystem Read</tspan></text>
<text class="" x="580" y="730" font-family="Arial, Helvetica, sans-serif" font-size="13" font-weight="400" fill="#5b667a" text-anchor="start"><tspan x="580" dy="0">Inspect scoped files</tspan></text>
<rect x="683" y="731" width="72" height="22" rx="11" fill="#e9f7ef" stroke="#198754" stroke-width="1"/>
<text class="" x="719" y="747" font-family="Arial, Helvetica, sans-serif" font-size="11" font-weight="700" fill="#198754" text-anchor="middle"><tspan x="719" dy="0">current</tspan></text><rect x="795" y="665" width="215" height="96" rx="18" fill="#ffffff" stroke="#7048e8" stroke-width="1.8"/>
<g fill="none" stroke="#7048e8" stroke-width="3" stroke-linecap="round" stroke-linejoin="round"><path d="M823,685 H841 L851,695 V723 H823 Z"/><path d="M841,685 V696 H851"/><path d="M829,705 H845 M829,713 H845"/></g>
<text class="" x="855" y="702" font-family="Arial, Helvetica, sans-serif" font-size="16" font-weight="700" fill="#172033" text-anchor="start"><tspan x="855" dy="0">Patch Plan</tspan></text>
<text class="" x="815" y="730" font-family="Arial, Helvetica, sans-serif" font-size="13" font-weight="400" fill="#5b667a" text-anchor="start"><tspan x="815" dy="0">Propose diffs only</tspan></text>
<rect x="918" y="731" width="72" height="22" rx="11" fill="#e9f7ef" stroke="#198754" stroke-width="1"/>
<text class="" x="954" y="747" font-family="Arial, Helvetica, sans-serif" font-size="11" font-weight="700" fill="#198754" text-anchor="middle"><tspan x="954" dy="0">current</tspan></text><rect x="1030" y="665" width="215" height="96" rx="18" fill="#ffffff" stroke="#b85c00" stroke-width="1.8"/>
<g fill="none" stroke="#b85c00" stroke-width="3" stroke-linecap="round" stroke-linejoin="round"><rect x="1056" y="701" width="32" height="24" rx="5"/><path d="M1062,701 V695 C1062,685 1082,685 1082,695 V701"/><path d="M1072,711 V717"/></g>
<text class="" x="1090" y="702" font-family="Arial, Helvetica, sans-serif" font-size="16" font-weight="700" fill="#172033" text-anchor="start"><tspan x="1090" dy="0">Patch Apply</tspan></text>
<text class="" x="1050" y="730" font-family="Arial, Helvetica, sans-serif" font-size="13" font-weight="400" fill="#5b667a" text-anchor="start"><tspan x="1050" dy="0">Approved local write</tspan></text>
<rect x="1153" y="731" width="72" height="22" rx="11" fill="#e9f7ef" stroke="#198754" stroke-width="1"/>
<text class="" x="1189" y="747" font-family="Arial, Helvetica, sans-serif" font-size="11" font-weight="700" fill="#198754" text-anchor="middle"><tspan x="1189" dy="0">current</tspan></text><rect x="560" y="787" width="215" height="96" rx="18" fill="#ffffff" stroke="#198754" stroke-width="1.8"/>
<g fill="none" stroke="#198754" stroke-width="3" stroke-linecap="round" stroke-linejoin="round"><circle cx="595.0" cy="820.0" r="8"/><path d="M595.0,806 V813 M595.0,834 V827 M581,820.0 H588 M609,820.0 H602 M587,812 L592,817 M603,828 L598,823 M603,812 L598,817 M587,828 L592,823"/></g>
<text class="" x="620" y="824" font-family="Arial, Helvetica, sans-serif" font-size="16" font-weight="700" fill="#172033" text-anchor="start"><tspan x="620" dy="0">Test Runner</tspan></text>
<text class="" x="580" y="852" font-family="Arial, Helvetica, sans-serif" font-size="13" font-weight="400" fill="#5b667a" text-anchor="start"><tspan x="580" dy="0">Allowlisted commands</tspan></text>
<rect x="683" y="853" width="72" height="22" rx="11" fill="#e9f7ef" stroke="#198754" stroke-width="1"/>
<text class="" x="719" y="869" font-family="Arial, Helvetica, sans-serif" font-size="11" font-weight="700" fill="#198754" text-anchor="middle"><tspan x="719" dy="0">current</tspan></text><rect x="795" y="787" width="215" height="96" rx="18" fill="#ffffff" stroke="#3448a8" stroke-width="1.8"/>
<g fill="none" stroke="#3448a8" stroke-width="3" stroke-linecap="round" stroke-linejoin="round"><path d="M823,807 H841 L851,817 V845 H823 Z"/><path d="M841,807 V818 H851"/><path d="M829,827 H845 M829,835 H845"/></g>
<text class="" x="855" y="824" font-family="Arial, Helvetica, sans-serif" font-size="16" font-weight="700" fill="#172033" text-anchor="start"><tspan x="855" dy="0">Local Git / PR</tspan></text>
<text class="" x="815" y="852" font-family="Arial, Helvetica, sans-serif" font-size="13" font-weight="400" fill="#5b667a" text-anchor="start"><tspan x="815" dy="0">Status, branch, commit,</tspan><tspan x="815" dy="14.819999999999999">PR body</tspan></text>
<rect x="918" y="853" width="72" height="22" rx="11" fill="#e9f7ef" stroke="#198754" stroke-width="1"/>
<text class="" x="954" y="869" font-family="Arial, Helvetica, sans-serif" font-size="11" font-weight="700" fill="#198754" text-anchor="middle"><tspan x="954" dy="0">current</tspan></text><rect x="1030" y="787" width="215" height="96" rx="18" fill="#ffffff" stroke="#3448a8" stroke-width="1.8"/>
<g fill="none" stroke="#3448a8" stroke-width="3" stroke-linecap="round" stroke-linejoin="round"><path d="M1054,818 L1072,809 L1090,818 L1072,827 Z"/><path d="M1054,818 V836 L1072,846 L1090,836 V818"/><path d="M1072,827 V846"/></g>
<text class="" x="1090" y="824" font-family="Arial, Helvetica, sans-serif" font-size="16" font-weight="700" fill="#172033" text-anchor="start"><tspan x="1090" dy="0">Remote PR</tspan></text>
<text class="" x="1050" y="852" font-family="Arial, Helvetica, sans-serif" font-size="13" font-weight="400" fill="#5b667a" text-anchor="start"><tspan x="1050" dy="0">Guarded GitHub create PR</tspan></text>
<rect x="1153" y="853" width="72" height="22" rx="11" fill="#e9f7ef" stroke="#198754" stroke-width="1"/>
<text class="" x="1189" y="869" font-family="Arial, Helvetica, sans-serif" font-size="11" font-weight="700" fill="#198754" text-anchor="middle"><tspan x="1189" dy="0">current</tspan></text><rect x="560" y="909" width="215" height="96" rx="18" fill="#ffffff" stroke="#0f766e" stroke-width="1.8"/>
<g fill="none" stroke="#0f766e" stroke-width="3" stroke-linecap="round" stroke-linejoin="round"><ellipse cx="602" cy="935" rx="17" ry="7"/><path d="M585,935 V961 C585,971 619,971 619,961 V935"/><path d="M585,948 C585,958 619,958 619,948"/></g>
<text class="" x="620" y="946" font-family="Arial, Helvetica, sans-serif" font-size="16" font-weight="700" fill="#172033" text-anchor="start"><tspan x="620" dy="0">Database</tspan></text>
<text class="" x="580" y="974" font-family="Arial, Helvetica, sans-serif" font-size="13" font-weight="400" fill="#5b667a" text-anchor="start"><tspan x="580" dy="0">Report or planned query</tspan><tspan x="580" dy="14.819999999999999">packs</tspan></text>
<rect x="683" y="975" width="72" height="22" rx="11" fill="#eef2f7" stroke="#5b667a" stroke-width="1"/>
<text class="" x="719" y="991" font-family="Arial, Helvetica, sans-serif" font-size="11" font-weight="700" fill="#5b667a" text-anchor="middle"><tspan x="719" dy="0">planned</tspan></text><rect x="795" y="909" width="215" height="96" rx="18" fill="#ffffff" stroke="#b3261e" stroke-width="1.8"/>
<g fill="none" stroke="#b3261e" stroke-width="3" stroke-linecap="round" stroke-linejoin="round"><rect x="818" y="933" width="38" height="32" rx="4"/><path d="M818,943 H856 M818,954 H856 M830,933 V943 M843,943 V954 M830,954 V965"/></g>
<text class="" x="855" y="946" font-family="Arial, Helvetica, sans-serif" font-size="16" font-weight="700" fill="#172033" text-anchor="start"><tspan x="855" dy="0">Firewall / Zones</tspan></text>
<text class="" x="815" y="974" font-family="Arial, Helvetica, sans-serif" font-size="13" font-weight="400" fill="#5b667a" text-anchor="start"><tspan x="815" dy="0">Plan and gated rule</tspan><tspan x="815" dy="14.819999999999999">changes</tspan></text>
<rect x="918" y="975" width="72" height="22" rx="11" fill="#eef2f7" stroke="#5b667a" stroke-width="1"/>
<text class="" x="954" y="991" font-family="Arial, Helvetica, sans-serif" font-size="11" font-weight="700" fill="#5b667a" text-anchor="middle"><tspan x="954" dy="0">planned</tspan></text><rect x="1030" y="909" width="215" height="96" rx="18" fill="#ffffff" stroke="#b85c00" stroke-width="1.8"/>
<g fill="none" stroke="#b85c00" stroke-width="3" stroke-linecap="round" stroke-linejoin="round"><circle cx="1065.0" cy="942.0" r="8"/><path d="M1065.0,928 V935 M1065.0,956 V949 M1051,942.0 H1058 M1079,942.0 H1072 M1057,934 L1062,939 M1073,950 L1068,945 M1073,934 L1068,939 M1057,950 L1062,945"/></g>
<text class="" x="1090" y="946" font-family="Arial, Helvetica, sans-serif" font-size="16" font-weight="700" fill="#172033" text-anchor="start"><tspan x="1090" dy="0">Packages / Patching</tspan></text>
<text class="" x="1050" y="974" font-family="Arial, Helvetica, sans-serif" font-size="13" font-weight="400" fill="#5b667a" text-anchor="start"><tspan x="1050" dy="0">Plan and execute</tspan><tspan x="1050" dy="14.819999999999999">approved updates</tspan></text>
<rect x="1153" y="975" width="72" height="22" rx="11" fill="#eef2f7" stroke="#5b667a" stroke-width="1"/>
<text class="" x="1189" y="991" font-family="Arial, Helvetica, sans-serif" font-size="11" font-weight="700" fill="#5b667a" text-anchor="middle"><tspan x="1189" dy="0">planned</tspan></text><rect x="560" y="1031" width="215" height="96" rx="18" fill="#ffffff" stroke="#2f6fed" stroke-width="1.8"/>
<g fill="none" stroke="#2f6fed" stroke-width="3" stroke-linecap="round" stroke-linejoin="round"><rect x="583" y="1061" width="38" height="26" rx="5"/><path d="M590,1061 V1055 H614 V1061"/><path d="M591,1070 H613 M591,1078 H613"/></g>
<text class="" x="620" y="1068" font-family="Arial, Helvetica, sans-serif" font-size="16" font-weight="700" fill="#172033" text-anchor="start"><tspan x="620" dy="0">Containers / CI</tspan></text>
<text class="" x="580" y="1096" font-family="Arial, Helvetica, sans-serif" font-size="13" font-weight="400" fill="#5b667a" text-anchor="start"><tspan x="580" dy="0">Runtime and pipeline</tspan><tspan x="580" dy="14.819999999999999">helpers</tspan></text>
<rect x="683" y="1097" width="72" height="22" rx="11" fill="#eef2f7" stroke="#5b667a" stroke-width="1"/>
<text class="" x="719" y="1113" font-family="Arial, Helvetica, sans-serif" font-size="11" font-weight="700" fill="#5b667a" text-anchor="middle"><tspan x="719" dy="0">planned</tspan></text><rect x="795" y="1031" width="215" height="96" rx="18" fill="#ffffff" stroke="#198754" stroke-width="1.8"/>
<g fill="none" stroke="#198754" stroke-width="3" stroke-linecap="round" stroke-linejoin="round"><rect x="821" y="1052" width="30" height="38" rx="4"/><path d="M828,1062 H845 M828,1071 H845 M828,1080 H840"/><path d="M817,1058 H821 M817,1068 H821 M817,1078 H821"/></g>
<text class="" x="855" y="1068" font-family="Arial, Helvetica, sans-serif" font-size="16" font-weight="700" fill="#172033" text-anchor="start"><tspan x="855" dy="0">Backup / Restore</tspan></text>
<text class="" x="815" y="1096" font-family="Arial, Helvetica, sans-serif" font-size="13" font-weight="400" fill="#5b667a" text-anchor="start"><tspan x="815" dy="0">Verify recovery evidence</tspan></text>
<rect x="918" y="1097" width="72" height="22" rx="11" fill="#eef2f7" stroke="#5b667a" stroke-width="1"/>
<text class="" x="954" y="1113" font-family="Arial, Helvetica, sans-serif" font-size="11" font-weight="700" fill="#5b667a" text-anchor="middle"><tspan x="954" dy="0">planned</tspan></text><rect x="1030" y="1031" width="215" height="96" rx="18" fill="#ffffff" stroke="#7048e8" stroke-width="1.8"/>
<g fill="none" stroke="#7048e8" stroke-width="3" stroke-linecap="round" stroke-linejoin="round"><path d="M1065.0,1049 L1078,1057 V1064.0 C1077,1075 1065.0,1079 1065.0,1079 C1065.0,1079 1053,1075 1052,1064.0 V1057 Z"/><path d="M1065.0,1058 V1072"/></g>
<text class="" x="1090" y="1068" font-family="Arial, Helvetica, sans-serif" font-size="16" font-weight="700" fill="#172033" text-anchor="start"><tspan x="1090" dy="0">Cloud / Deploy</tspan></text>
<text class="" x="1050" y="1096" font-family="Arial, Helvetica, sans-serif" font-size="13" font-weight="400" fill="#5b667a" text-anchor="start"><tspan x="1050" dy="0">Future gated operations</tspan></text>
<rect x="1153" y="1097" width="72" height="22" rx="11" fill="#eef2f7" stroke="#5b667a" stroke-width="1"/>
<text class="" x="1189" y="1113" font-family="Arial, Helvetica, sans-serif" font-size="11" font-weight="700" fill="#5b667a" text-anchor="middle"><tspan x="1189" dy="0">planned</tspan></text><line x1="480" y1="775" x2="560" y2="775" stroke="#7048e8" stroke-width="3" marker-end="url(#arrow)"/><rect x="392.5" y="701.0" width="255" height="34" rx="17" fill="#ffffff" fill-opacity="0.72" stroke="#a8b3c7" stroke-opacity="0.65" stroke-width="1.5"/><text class="" x="520.0" y="725.0" font-family="Arial, Helvetica, sans-serif" font-size="14" font-weight="700" fill="#5b667a" text-anchor="middle"><tspan x="520.0" dy="0">manifest + policy scope</tspan></text><line x1="1420" y1="775" x2="1265" y2="775" stroke="#0f766e" stroke-width="3" marker-end="url(#arrow)"/><rect x="1247.75" y="805.0" width="205" height="34" rx="17" fill="#ffffff" fill-opacity="0.72" stroke="#a8b3c7" stroke-opacity="0.65" stroke-width="1.5"/><text class="" x="1350.25" y="829.0" font-family="Arial, Helvetica, sans-serif" font-size="14" font-weight="700" fill="#5b667a" text-anchor="middle"><tspan x="1350.25" dy="0">zone constraints</tspan></text><line x1="1148" y1="545" x2="1148" y2="665" stroke="#198754" stroke-width="3" marker-end="url(#arrow)"/><rect x="1151.0" y="579.0" width="230" height="34" rx="17" fill="#ffffff" fill-opacity="0.72" stroke="#a8b3c7" stroke-opacity="0.65" stroke-width="1.5"/><text class="" x="1266.0" y="603.0" font-family="Arial, Helvetica, sans-serif" font-size="14" font-weight="700" fill="#5b667a" text-anchor="middle"><tspan x="1266.0" dy="0">authorized dispatch</tspan></text><rect x="198" y="1200" width="610" height="150" rx="24" fill="#101828" opacity="0.08"/>
<rect x="190" y="1190" width="610" height="150" rx="24" fill="#fff9db" stroke="#b85c00" stroke-width="2"/>
<g fill="none" stroke="#b85c00" stroke-width="3" stroke-linecap="round" stroke-linejoin="round"><path d="M224,1218 H242 L252,1228 V1256 H224 Z"/><path d="M242,1218 V1229 H252"/><path d="M230,1238 H246 M230,1246 H246"/></g>
<text class="" x="264" y="1234" font-family="Arial, Helvetica, sans-serif" font-size="25" font-weight="700" fill="#172033" text-anchor="start"><tspan x="264" dy="0">Evidence Bundles</tspan></text>
<text class="" x="216" y="1274" font-family="Arial, Helvetica, sans-serif" font-size="18" font-weight="400" fill="#5b667a" text-anchor="start"><tspan x="216" dy="0">Per-run artifacts with hashes, policy decisions,</tspan><tspan x="216" dy="21.96">proposed/applied patches, test output, trust diagnostics, and</tspan><tspan x="216" dy="21.96">human-readable summaries.</tspan></text><rect x="1108" y="1200" width="610" height="150" rx="24" fill="#101828" opacity="0.08"/>
<rect x="1100" y="1190" width="610" height="150" rx="24" fill="#fff9db" stroke="#b85c00" stroke-width="2"/>
<g fill="none" stroke="#b85c00" stroke-width="3" stroke-linecap="round" stroke-linejoin="round"><rect x="1132" y="1219" width="30" height="38" rx="4"/><path d="M1139,1229 H1156 M1139,1238 H1156 M1139,1247 H1151"/><path d="M1128,1225 H1132 M1128,1235 H1132 M1128,1245 H1132"/></g>
<text class="" x="1174" y="1234" font-family="Arial, Helvetica, sans-serif" font-size="25" font-weight="700" fill="#172033" text-anchor="start"><tspan x="1174" dy="0">Append-only Audit Ledger</tspan></text>
<text class="" x="1126" y="1274" font-family="Arial, Helvetica, sans-serif" font-size="18" font-weight="400" fill="#5b667a" text-anchor="start"><tspan x="1126" dy="0">Hash-chained JSONL events for requests, provider responses,</tspan><tspan x="1126" dy="21.96">handoffs, actions, approvals, evidence, and trust decisions.</tspan></text><line x1="760" y1="1135" x2="500" y2="1190" stroke="#b85c00" stroke-width="3" marker-end="url(#arrow)"/><rect x="465.0" y="1158.5" width="210" height="34" rx="17" fill="#ffffff" fill-opacity="0.72" stroke="#a8b3c7" stroke-opacity="0.65" stroke-width="1.5"/><text class="" x="570.0" y="1182.5" font-family="Arial, Helvetica, sans-serif" font-size="14" font-weight="700" fill="#5b667a" text-anchor="middle"><tspan x="570.0" dy="0">record evidence</tspan></text><line x1="1060" y1="1135" x2="1400" y2="1190" stroke="#b85c00" stroke-width="3" marker-end="url(#arrow)"/><rect x="1205.0" y="1158.5" width="190" height="34" rx="17" fill="#ffffff" fill-opacity="0.72" stroke="#a8b3c7" stroke-opacity="0.65" stroke-width="1.5"/><text class="" x="1300.0" y="1182.5" font-family="Arial, Helvetica, sans-serif" font-size="14" font-weight="700" fill="#5b667a" text-anchor="middle"><tspan x="1300.0" dy="0">append audit</tspan></text><rect x="76" y="1402" width="306" height="34" rx="17" fill="#e8f0ff" stroke="#2f6fed" stroke-width="1.5"/><text class="" x="229.0" y="1425" font-family="Arial, Helvetica, sans-serif" font-size="16" font-weight="700" fill="#2f6fed" text-anchor="middle"><tspan x="229.0" dy="0">Models request; runtime authorizes</tspan></text><rect x="520" y="1402" width="234" height="34" rx="17" fill="#e9f7ef" stroke="#198754" stroke-width="1.5"/><text class="" x="637.0" y="1425" font-family="Arial, Helvetica, sans-serif" font-size="16" font-weight="700" fill="#198754" text-anchor="middle"><tspan x="637.0" dy="0">Least privilege by Gadget</tspan></text><rect x="900" y="1402" width="274" height="34" rx="17" fill="#fff2df" stroke="#b85c00" stroke-width="1.5"/><text class="" x="1037.0" y="1425" font-family="Arial, Helvetica, sans-serif" font-size="16" font-weight="700" fill="#b85c00" text-anchor="middle"><tspan x="1037.0" dy="0">Separation of duties by design</tspan></text><rect x="1352" y="1402" width="282" height="34" rx="17" fill="#f0ebff" stroke="#7048e8" stroke-width="1.5"/><text class="" x="1493.0" y="1425" font-family="Arial, Helvetica, sans-serif" font-size="16" font-weight="700" fill="#7048e8" text-anchor="middle"><tspan x="1493.0" dy="0">Provider-neutral / LLM-agnostic</tspan></text></svg>
